<svg xmlns="http://www.w3.org/2000/svg" viewBox="0 0 346.37 330.5"><defs><style>.cls-1,.cls-2,.cls-3,.cls-5,.cls-6{stroke:#000;stroke-miterlimit:10;}.cls-1,.cls-2,.cls-3{stroke-width:3px;}.cls-2{fill:#c69c6d;}.cls-2,.cls-6{stroke-linecap:round;}.cls-3{fill:#fff;}.cls-4{font-size:124.68px;}.cls-4,.cls-5{font-family:SegoePrint, Segoe Print;}.cls-5{font-size:36px;stroke-width:2px;}.cls-6{fill:none;stroke-width:7px;}</style></defs><title>Asset 1</title><g id="Layer_2" data-name="Layer 2"><g id="Layer_1-2" data-name="Layer 1"><path class="cls-1" d="M292.87,153s52,7,52,49-66,56-66,56l1-11s52-9,52-44-43-40-43-40Z"/><path class="cls-2" d="M6.87,116h283s64,213-134,213S6.87,116,6.87,116Z"/><rect class="cls-3" x="88.35" y="165.96" width="129" height="111.02" rx="15.96"/><text class="cls-4" transform="translate(106.07 264.86)">Y</text><text class="cls-5" transform="matrix(1, -0.06, 0.06, 1, 168.42, 263.72)">J</text><path class="cls-6" d="M77.37,3.5s-23,23,2,48-11,36-11,36"/><path class="cls-6" d="M152.37,3.5s-23,23,2,48-11,36-11,36"/><path class="cls-6" d="M221.37,3.5s-23,23,2,48-11,36-11,36"/></g></g></svg>